<svg viewBox="0 0 300 300" xmlns="http://www.w3.org/2000/svg" version="1.1">
	<g transform="translate(150,150)">
		<circle id="clockFace" cx="0" cy="0" r="125" fill="#dceaff" stroke="#000" stroke-width="1"/>
		<g id="periods" fill="none" stroke="none" stroke-width="0">
			<path d="M 0,0 L 0,125 A 125 125 0 0 1 -108.25317547305482,62.500000000000014 z" fill="#192029"/>
			<path d="M 0,0 L -108.25317547305482,62.500000000000014 A 125 125 0 0 1 -120.74072828613355,32.352380637815095 z" fill="#213c66"/>
			<path d="M 0,0 L -120.74072828613355,32.352380637815095 A 125 125 0 0 1 -125,7.654042494670958e-15 z" fill="#4574bc"/>
			<path d="M 0,0 L -125,7.654042494670958e-15 A 125 125 0 0 1 -120.74072828613355,-32.35238063781511 z" fill="#88a6d4"/>
			<path d="M 0,0 L -120.74072828613355,-32.35238063781511 A 125 125 0 0 1 -118.36626618688821,-40.17993316289517 z" fill="#ff9900"/>
			<path d="M 0,0 L -118.36626618688821,-40.17993316289517 A 125 125 0 0 1 -108.25317547305485,-62.49999999999997 z" fill="#ffe988"/>
			<path d="M 0,0 L -108.25317547305485,-62.49999999999997 A 125 125 0 0 1 -1.5308084989341916e-14,-125 z" fill="#dceaff"/>
			<path d="M 0,0 L -1.5308084989341916e-14,-125 A 125 125 0 0 1 108.2531754730548,-62.50000000000006 z" fill="#dceaff"/>
			<path d="M 0,0 L 108.2531754730548,-62.50000000000006 A 125 125 0 0 1 118.3662661868882,-40.179933162895225 z" fill="#ffe988"/>
			<path d="M 0,0 L 118.3662661868882,-40.179933162895225 A 125 125 0 0 1 120.74072828613355,-32.35238063781508 z" fill="#ff9900"/>
			<path d="M 0,0 L 120.74072828613355,-32.35238063781508 A 125 125 0 0 1 125,-2.2962127484012872e-14 z" fill="#88a6d4"/>
			<path d="M 0,0 L 125,-2.2962127484012872e-14 A 125 125 0 0 1 120.74072828613355,32.35238063781504 z" fill="#4574bc"/>
			<path d="M 0,0 L 120.74072828613355,32.35238063781504 A 125 125 0 0 1 108.25317547305482,62.5 z" fill="#213c66"/>
			<path d="M 0,0 L 108.25317547305482,62.5 A 125 125 0 0 1 0,125 z" fill="#192029"/>
		</g>
	</g>
</svg>
