<svg xmlns="http://www.w3.org/2000/svg" viewBox="0 0 1000 1000">
	<path fill="currentColor" d="M497.4 10C226.8 11.4 8.5 232 10 502.6 11.4 773.3 232.1 991.4 502.6 990c270.8-1.5 488.9-222 487.4-492.6C988.5 226.7 768.1 8.6 497.4 10z M502.2 910.2C275.7 911.3 91.3 728.7 90 502.2 88.8 275.7 271.3 91 497.8 89.8 724.4 88.6 909 271.3 910.2 497.7c1.2 226.6-181.5 411.2-408 412.5z"/>
	<path fill="currentColor" d="m574.8 714.4-2-366.3-189 1.2.4 80.2 51.3-.3 1.5 286-54.4.2.4 76.6 237.2-1.3-.5-76.5-44.9.2z M502.8 294.1c46.2-.2 74.1-31.1 73.9-69.2-1.2-39-28.4-68.7-72.9-68.5-44.3.3-73.3 30.4-73.1 69.3.2 38 28.4 68.7 72.1 68.4z"/>
</svg>