<svg xmlns="http://www.w3.org/2000/svg" viewBox="0 0 40 40" version="1.1">
	<path fill="currentColor" d="m15.67 36.96-.8-5.38q-.62-.25-1.3-.64-.7-.4-1.24-.82L7.3 32.34l-4.33-7.62 4.46-3.34-.07-.66-.02-.71.02-.7.07-.68-4.46-3.33 4.33-7.62 5.04 2.2q.54-.41 1.23-.8.69-.4 1.31-.61l.8-5.42h8.66l.8 5.38q.62.25 1.33.64.7.4 1.2.81l5.05-2.2 4.33 7.62-4.5 3.3q.09.33.1.7.03.38.03.71l-.02.7q-.02.38-.1.72l4.5 3.29-4.38 7.62-5-2.2q-.55.41-1.21.83-.67.41-1.34.62l-.79 5.38ZM20 25.54q2.3 0 3.92-1.62 1.62-1.63 1.62-3.92 0-2.3-1.62-3.92-1.63-1.62-3.92-1.62-2.3 0-3.92 1.62-1.62 1.63-1.62 3.92 0 2.3 1.62 3.92 1.63 1.62 3.92 1.62Zm0-2.75q-1.17 0-1.98-.81T17.21 20q0-1.17.81-1.98t1.98-.81q1.17 0 1.98.81t.81 1.98q0 1.17-.81 1.98t-1.98.81ZM20 20Zm-1.7 13.8h3.37l.58-4.6q1.38-.32 2.58-1.01 1.21-.69 2.17-1.69l4.33 1.83 1.55-2.79-3.8-2.79q.17-.67.27-1.35.1-.7.1-1.4t-.07-1.4q-.09-.68-.3-1.35l3.8-2.8-1.55-2.78L27 13.5q-.92-1.04-2.13-1.77-1.2-.73-2.62-.94l-.54-4.58h-3.38l-.58 4.54q-1.42.33-2.63 1.02-1.2.69-2.16 1.73l-4.3-1.83-1.54 2.79 3.75 2.75q-.16.7-.27 1.4-.1.68-.1 1.39 0 .7.1 1.4.1.68.28 1.35l-3.76 2.8 1.55 2.78 4.29-1.83q1 1 2.2 1.7 1.21.72 2.59 1.05Z"/>
</svg>
